Working!! (2010) x264HD 12 episodes Dutch sub (adjustable)


Released 21 Jun 10 Working!! Episode 12
Released 13 Jun 10 Working!! Episode 11
Released 07 Jun 10 Working!! Episode 10
Released 30 May 10 Working!! Episode 9
Released 23 May 10 Working!! Episode 8
Released 16 May 10 Working!! Episode 7
Released 09 May 10 Working!! Episode 6
Released 02 May 10 Working!! Episode 5
Released 26 Apr 10 Working!! Episode 4
Released 19 Apr 10 Working!! Episode 3
Released 13 Apr 10 Working!! Episode 2
Released 06 Apr 10 Working!! Episode 1




General
Complete name                    : Working!! 01 1280x720.mkv
Format                           : Matroska
File size                        : 317 MiB
Duration                         : 24mn 0s
Overall bit rate                 : 1 844 Kbps
Encoded date                     : UTC 2010-04-05 19:05:52
Writing application              : mkvmerge v3.2.0 ('Beginnings') built on Feb 12 2010 16:46:17
Writing library                  : libebml v0.7.9 + libmatroska v0.8.1

Video
ID                               : 1
Format                           : AVC
Format/Info                      : Advanced Video Codec
Format profile                   : High@L4.0
Format settings, CABAC           : Yes
Format settings, ReFrames        : 8 frames
Muxing mode                      : Container profile=Unknown@4.0
Codec ID                         : V_MPEG4/ISO/AVC
Duration                         : 24mn 0s
Bit rate                         : 1 584 Kbps
Nominal bit rate                 : 1 618 Kbps
Width                            : 1 280 pixels
Height                           : 720 pixels
Display aspect ratio             : 16:9
Frame rate                       : 23.976 fps
Resolution                       : 8 bits
Colorimetry                      : 4:2:0
Scan type                        : Progressive
Bits/(Pixel*Frame)               : 0.072
Stream size                      : 272 MiB (86%)
Writing library                  : x264 core 80 r1376M 3feaec2
Encoding settings                : cabac=1 / ref=8 / deblock=1:1:1 / analyse=0x3:0x133 / me=umh / subme=6 / psy=1 / psy_rd=0.6:0.0 / mixed_ref=1 / me_range=16 / chroma_me=1 / trellis=2 / 8x8dct=1 / 
                                   cqm=0 / deadzone=21,11 / fast_pskip=1 / chroma_qp_offset=-2 / threads=6 / sliced_threads=0 / nr=0 / decimate=1 / mbaff=0 / constrained_intra=0 / bframes=16 / 
                                   b_pyramid=0 / b_adapt=1 / b_bias=0 / direct=3 / wpredb=0 / wpredp=2 / keyint=250 / keyint_min=25 / scenecut=40 / rc_lookahead=40 / rc=2pass / mbtree=1 / bitrate=1618 / 
                                   ratetol=1.0 / qcomp=0.60 / qpmin=10 / qpmax=51 / qpstep=4 / cplxblur=20.0 / qblur=0.5 / ip_ratio=1.40 / aq=1:0.00

Audio
ID                               : 2
Format                           : AC-3
Format/Info                      : Audio Coding 3
Format_Settings_ModeExtension    : CM (complete main)
Codec ID                         : A_AC3
Duration                         : 24mn 0s
Bit rate mode                    : Constant
Bit rate                         : 224 Kbps
Channel(s)                       : 2 channels
Channel positions                : Front: L R
Sampling rate                    : 48.0 KHz
Stream size                      : 38.5 MiB (12%)

Text
ID                               : 3
Format                           : ASS
Codec ID                         : S_TEXT/ASS
Codec ID/Info                    : Advanced Sub Station Alpha
Language                         : Dutch

